<svg xmlns="http://www.w3.org/2000/svg" width="130" height="80" viewBox="0 0 130 80">
    <g fill="none" fill-rule="evenodd">
        <path fill="#FFF" d="M3 0h124a3 3 0 0 1 3 3v74a3 3 0 0 1-3 3H3a3 3 0 0 1-3-3V3a3 3 0 0 1 3-3z"/>
        <g transform="translate(20 16)">
            <rect width="56" height="3" y="13" fill="#D0D4D8" rx="1.5"/>
            <path fill="#787E85" d="M1 0h88a1 1 0 0 1 1 1v3a1 1 0 0 1-1 1H1a1 1 0 0 1-1-1V1a1 1 0 0 1 1-1z"/>
            <rect width="34" height="3" y="24" fill="#D0D4D8" rx="1.5"/>
            <rect width="19" height="3" y="35" fill="#D0D4D8" rx="1.5"/>
            <rect width="46" height="3" y="46" fill="#D0D4D8" rx="1.5"/>
            <path fill="#4195F0" d="M79.5 13h9a1.5 1.5 0 0 1 0 3h-9a1.5 1.5 0 0 1 0-3z"/>
            <path fill="#F1B300" d="M79.5 24h9a1.5 1.5 0 0 1 0 3h-9a1.5 1.5 0 0 1 0-3z"/>
            <path fill="#24B47E" d="M79.5 35h9a1.5 1.5 0 0 1 0 3h-9a1.5 1.5 0 0 1 0-3z"/>
            <path fill="#00B388" d="M79.5 46h9a1.5 1.5 0 0 1 0 3h-9a1.5 1.5 0 0 1 0-3z"/>
        </g>
    </g>
</svg>
