<svg xmlns="http://www.w3.org/2000/svg" width="130" height="80" viewBox="0 0 130 80">
    <g fill="none" fill-rule="evenodd">
        <path fill="#FFF" d="M3 0h124a3 3 0 0 1 3 3v74a3 3 0 0 1-3 3H3a3 3 0 0 1-3-3V3a3 3 0 0 1 3-3z"/>
        <g transform="translate(20 16)">
            <path fill="#D0D4D8" d="M1.5 13h45a1.5 1.5 0 1 1 0 3h-45a1.5 1.5 0 0 1 0-3z"/>
            <path fill="#787E85" d="M1 0h88a1 1 0 0 1 1 1v3a1 1 0 0 1-1 1H1a1 1 0 0 1-1-1V1a1 1 0 0 1 1-1z"/>
            <path fill="#D0D4D8" d="M1.5 24h13a1.5 1.5 0 1 1 0 3h-13a1.5 1.5 0 0 1 0-3zM1.5 35h27a1.5 1.5 0 1 1 0 3h-27a1.5 1.5 0 0 1 0-3zM1.5 46h17a1.5 1.5 0 0 1 0 3h-17a1.5 1.5 0 1 1 0-3z"/>
            <rect width="7" height="3" x="69" y="13" fill="#F1B300" rx="1.5"/>
            <path fill="#00B388" d="M75 13h13.5a1.5 1.5 0 0 1 0 3H75v-3z"/>
            <path fill="#4195F0" d="M62.5 13H70v3h-7.5a1.5 1.5 0 0 1 0-3z"/>
            <path fill="#F1B300" d="M77 24h9v3h-9z"/>
            <path fill="#00B388" d="M84 24h4.5a1.5 1.5 0 1 1 0 3H84v-3z"/>
            <path fill="#4195F0" d="M62.5 24H78v3H62.5a1.5 1.5 0 1 1 0-3z"/>
            <path fill="#00B388" d="M68 35h20.5a1.5 1.5 0 1 1 0 3H68v-3z"/>
            <path fill="#F1B300" d="M62.5 35H68v3h-5.5a1.5 1.5 0 1 1 0-3z"/>
            <path fill="#4195F0" d="M62.5 46h26a1.5 1.5 0 1 1 0 3h-26a1.5 1.5 0 1 1 0-3z"/>
        </g>
    </g>
</svg>
