<svg xmlns="http://www.w3.org/2000/svg" xmlns:xlink="http://www.w3.org/1999/xlink" width="130" height="80" viewBox="0 0 130 80">
    <defs>
        <path id="a" d="M.667 1l76-.119V54h-76z"/>
    </defs>
    <g fill="none" fill-rule="evenodd">
        <path fill="#FFF" d="M3 0h124a3 3 0 0 1 3 3v74a3 3 0 0 1-3 3H3a3 3 0 0 1-3-3V3a3 3 0 0 1 3-3z"/>
        <path fill="#787E85" d="M28 66V13h-2v55h78v-2H28z"/>
        <g transform="translate(27.333 12)">
            <mask id="b" fill="#fff">
                <use xlink:href="#a"/>
            </mask>
            <path fill="#FDF7DF" stroke="#F1B300" stroke-width="2" d="M-174.988 34.91c.63-.32 10.317 2.41 18.638 1.311 8.322-1.099 7.273-2.275 10.545-4.733 3.272-2.457 9.886 2.428 16.994 2.193 9.991-.33 12.27-2.684 25.417-10.571 13.146-7.887 17.98-4.404 27.605.83 9.623 5.233 4.275-.307 15.16-.005 10.885.303 13.953 15.346 30.881 15.89 16.928.545 16.725-37.312 31.03-37.594C13.091 1.997 26.075 14.806 36.666 27c10.59 12.194 25.123 25.94 39.706 25.94 10.055 0 17.822-3.97 33.19-16.143 15.368-12.172 17.719 1.612 19.952 1.774 2.232.161 5.818.063 5.818.063v17.073h-314V35.544s.736-.416 3.679-.635z" mask="url(#b)"/>
            <path stroke="#E63422" stroke-dasharray="8" stroke-width="2" d="M.667 3L76 53.667" mask="url(#b)" opacity=".147"/>
        </g>
        <path fill="#4E5358" d="M92.586 28v-1.638h-5.22l4.014-4.914c.792-.972 1.206-1.638 1.206-2.772 0-2.214-1.512-3.6-3.708-3.6-2.178 0-3.726 1.44-3.726 3.618h1.836c0-1.44.918-1.98 1.89-1.98 1.188 0 1.872.792 1.872 1.944 0 .648-.198 1.116-.684 1.71l-4.932 5.994V28h7.452zm9.504-3.564c0 2.286-1.674 3.672-3.708 3.672-2.034 0-3.69-1.386-3.69-3.672v-5.688c0-2.286 1.656-3.672 3.69-3.672s3.708 1.386 3.708 3.672v5.688zm-1.836-.054v-5.58c0-1.242-.702-2.088-1.872-2.088-1.17 0-1.854.846-1.854 2.088v5.58c0 1.242.684 2.088 1.854 2.088s1.872-.846 1.872-2.088z"/>
    </g>
</svg>
