<svg xmlns="http://www.w3.org/2000/svg" width="130" height="80" viewBox="0 0 130 80">
    <g fill="none" fill-rule="evenodd">
        <path fill="#FFF" d="M3 0h124a3 3 0 0 1 3 3v74a3 3 0 0 1-3 3H3a3 3 0 0 1-3-3V3a3 3 0 0 1 3-3z"/>
        <path fill="#4E5358" d="M31.345 47.812v-3.065H24.14l5.214-6.053c1.284-1.493 1.991-2.463 1.991-4.27 0-3.354-2.358-5.424-5.66-5.424C22.49 29 20 31.044 20 34.45h3.406c0-1.808 1.153-2.384 2.28-2.384 1.44 0 2.253.943 2.253 2.331 0 .865-.288 1.441-.97 2.254L20 44.747v3.065h11.345zm14.515-15.59v-3.065H33.991v6h3.25v-2.934h4.925l-6.052 15.59h3.694l6.052-15.59zm10.952 15.59V29.157h-3.406l-3.799 3.302v3.668l3.8-3.302v14.987h3.405zm9.852 1.441v-5.161h-3.747v8.043l3.747-2.882zm14.672-7.1c0 3.668-2.515 5.816-5.816 5.816-3.302 0-5.817-2.07-5.817-5.764 0-1.703.734-3.275 1.572-4.978l3.93-8.07h3.72l-3.877 7.703c.445-.183.943-.236 1.389-.236 2.515 0 4.9 2.07 4.9 5.529zm-3.406.026c0-1.65-.97-2.725-2.41-2.725-1.389 0-2.41.996-2.41 2.725 0 1.73 1.021 2.725 2.41 2.725 1.388 0 2.41-.996 2.41-2.725zm17.843.21c0 3.615-2.673 5.58-5.974 5.58s-5.974-1.965-5.974-5.58c0-2.28 1.31-3.511 2.332-4.192-.943-.656-2.096-1.887-2.096-3.878 0-3.302 2.62-5.319 5.738-5.319 3.118 0 5.712 2.017 5.712 5.319 0 1.991-1.153 3.222-2.096 3.878 1.022.68 2.358 1.912 2.358 4.192zm-3.668-7.965c0-1.337-.97-2.358-2.306-2.358s-2.332 1.021-2.332 2.358c0 1.362.996 2.358 2.332 2.358 1.336 0 2.306-.996 2.306-2.358zm.262 7.912c0-1.44-1.127-2.594-2.568-2.594-1.44 0-2.568 1.153-2.568 2.594a2.539 2.539 0 0 0 2.568 2.568 2.539 2.539 0 0 0 2.568-2.568zM110 42.39c0 3.615-2.672 5.58-5.974 5.58-3.301 0-5.974-1.965-5.974-5.58 0-2.28 1.31-3.511 2.332-4.192-.943-.656-2.096-1.887-2.096-3.878 0-3.302 2.62-5.319 5.738-5.319 3.118 0 5.712 2.017 5.712 5.319 0 1.991-1.153 3.222-2.096 3.878 1.022.68 2.358 1.912 2.358 4.192zm-3.668-7.965c0-1.337-.97-2.358-2.306-2.358s-2.332 1.021-2.332 2.358c0 1.362.996 2.358 2.332 2.358 1.336 0 2.306-.996 2.306-2.358zm.262 7.912c0-1.44-1.127-2.594-2.568-2.594-1.44 0-2.567 1.153-2.567 2.594a2.539 2.539 0 0 0 2.567 2.568 2.539 2.539 0 0 0 2.568-2.568z"/>
    </g>
</svg>
